# Blender 4.1.1
# www.blender.org
mtllib cube.mtl
o Cube.001
v 1.000000 1.000000 -1.000000
v 1.000000 -1.000000 -1.000000
v 1.000000 1.000000 1.000000
v 1.000000 -1.000000 1.000000
vn 1.0000 -0.0000 -0.0000
vt 1.000000 0.009124
vt 1.000000 0.990876
vt 0.000000 0.990876
vt 0.000000 0.009124
s 0
usemtl Material
f 2/1/1 1/2/1 3/3/1 4/4/1
o Cube.002
v 1.000000 1.000000 -1.000000
v 1.000000 -1.000000 -1.000000
v -1.000000 1.000000 -1.000000
v -1.000000 -1.000000 -1.000000
vn -0.0000 -0.0000 -1.0000
vt 0.000000 0.009202
vt 0.000000 0.990798
vt 1.000000 0.990798
vt 1.000000 0.009202
s 0
usemtl Material.001
f 8/5/2 7/6/2 5/7/2 6/8/2
o Cube.003
v 1.000000 -1.000000 -1.000000
v 1.000000 -1.000000 1.000000
v -1.000000 -1.000000 -1.000000
v -1.000000 -1.000000 1.000000
vn -0.0000 -1.0000 -0.0000
vt 0.001441 1.000000
vt 0.998559 1.000000
vt 0.998559 0.000000
vt 0.001441 0.000000
s 0
usemtl Material.005
f 11/9/3 9/10/3 10/11/3 12/12/3
o Cube.004
v -1.000000 1.000000 -1.000000
v -1.000000 -1.000000 -1.000000
v -1.000000 1.000000 1.000000
v -1.000000 -1.000000 1.000000
vn -1.0000 -0.0000 -0.0000
vt 0.008021 0.000000
vt 0.008021 1.000000
vt 0.991979 1.000000
vt 0.991979 0.000000
s 0
usemtl Material.002
f 16/13/4 15/14/4 13/15/4 14/16/4
o Cube.005
v 1.000000 1.000000 1.000000
v 1.000000 -1.000000 1.000000
v -1.000000 1.000000 1.000000
v -1.000000 -1.000000 1.000000
vn -0.0000 -0.0000 1.0000
vt 0.998922 0.000000
vt 0.998922 1.000000
vt 0.001078 1.000000
vt 0.001078 0.000000
s 0
usemtl Material.003
f 18/17/5 17/18/5 19/19/5 20/20/5
o Cube.006
v 1.000000 1.000000 -1.000000
v -1.000000 1.000000 -1.000000
v -1.000000 1.000000 1.000000
v 1.000000 1.000000 1.000000
vn -0.0000 1.0000 -0.0000
vt 1.000000 1.000000
vt 0.000000 1.000000
vt 0.000000 0.000000
vt 1.000000 0.000000
s 0
usemtl Material.004
f 21/21/6 22/22/6 23/23/6 24/24/6
